<?xml version="1.0" encoding="utf-8"?>
<!-- Generator: Adobe Illustrator 25.4.1, SVG Export Plug-In . SVG Version: 6.00 Build 0)  -->
<svg version="1.1" id="Layer_1" xmlns="http://www.w3.org/2000/svg" xmlns:xlink="http://www.w3.org/1999/xlink" x="0px" y="0px"
	 viewBox="0 0 443 390" style="enable-background:new 0 0 443 390;" xml:space="preserve">
<style type="text/css">
	.st0{fill:#E6E6E6;}
	.st1{fill:#F5F5F5;}
	.st2{opacity:0.7;fill:#E57716;enable-background:new    ;}
	.st3{fill:#E57716;}
	.st4{opacity:0.6;fill:#E57716;enable-background:new    ;}
	.st5{clip-path:url(#SVGID_00000033329560551110242900000018437717316833778331_);}
	.st6{opacity:0.3;}
	.st7{fill:#FFFFFF;}
	.st8{opacity:0.6;enable-background:new    ;}
	.st9{opacity:0.3;enable-background:new    ;}
	.st10{fill:#FAFAFA;}
	.st11{fill:#263238;}
	.st12{opacity:0.8;fill:#FAFAFA;enable-background:new    ;}
	.st13{opacity:0.1;enable-background:new    ;}
	.st14{opacity:0.5;enable-background:new    ;}
	.st15{fill:#E58A7B;}
	.st16{fill:#DF5753;}
	.st17{opacity:0.8;enable-background:new    ;}
	.st18{fill:#CF6F64;}
	.st19{opacity:0.2;enable-background:new    ;}
</style>
<g>
	<rect x="26.5" y="356.1" class="st0" width="27.4" height="0.2"/>
	<rect x="60.4" y="356.1" class="st0" width="8.7" height="0.2"/>
	<rect x="204.6" y="352.6" class="st0" width="19.4" height="0.2"/>
	<rect x="348.8" y="352.5" class="st0" width="43.2" height="0.2"/>
	<rect x="400.9" y="352.5" class="st0" width="6.3" height="0.2"/>
	<rect x="221" y="346.6" class="st0" width="93.7" height="0.2"/>
	<path class="st0" d="M17.9,295.8H211c3.2,0,5.7-2.6,5.7-5.7v-40.7h11.8v40.7c0,3.2,2.6,5.7,5.7,5.7h193.1c3.1,0,5.7-2.6,5.7-5.7
		V18.7c0-3.1-2.6-5.6-5.7-5.7h-4.5V9c0-2.3-1.8-4.1-4.1-4.1H290.3c-2.3,0-4.1,1.8-4.1,4.1v4h-52c-3.1,0-5.7,2.5-5.7,5.7V82h-11.8
		V18.7c0,0,0,0,0,0c0-3.2-2.6-5.7-5.7-5.7h-96.5c-0.4-1.9-2-3.3-4-3.3H40c-2,0-3.6,1.4-4,3.3H17.9c-3.1,0-5.7,2.5-5.7,5.7v271.4
		C12.2,293.2,14.8,295.8,17.9,295.8z M228.8,18.7c0-3,2.4-5.5,5.5-5.5h52v5.4h-5.1c-2.3,0-4.1,1.8-4.1,4.1v9.7h-5c0,0,0,0,0,0
		c-2.3,0-4.1,1.8-4.1,4.1v13.3h0V135c0,2.3,1.8,4.1,4.1,4.1h128.3c2.3,0,4.1-1.9,4.1-4.1v-9.7h5.1c2.3,0,4.1-1.9,4.1-4.1v-9.7h5.1
		c2.3,0,4.1-1.8,4.1-4.1V22.2v-9h4.5c3,0,5.5,2.4,5.5,5.5v271.4c0,3-2.4,5.5-5.5,5.5H234.2c-3,0-5.5-2.4-5.5-5.5v-40.7h13
		c2.2,0,3.9-1.8,3.9-3.9V203h4.8c2.1,0,3.8-1.8,3.9-3.9V98.5h0V85.9c0-2.2-1.7-3.9-3.9-3.9h-21.7V18.7z M12.5,18.7
		c0-3,2.4-5.5,5.4-5.5H36c0,0.2-0.1,0.4-0.1,0.6c0,2.2,1.8,4.1,4.1,4.1h70.5c2.2,0,4.1-1.8,4.1-4.1c0-0.2,0-0.4-0.1-0.6H211
		c3,0,5.5,2.4,5.5,5.5V82H57c-2.1,0-3.9,1.7-3.9,3.9v12.6h0v10h-4.8c-2.2,0-3.9,1.8-3.9,3.9V125h0v120.5c0,2.2,1.8,3.9,3.9,3.9
		h168.1v40.7c0,3-2.4,5.5-5.5,5.5H17.9c-3,0-5.4-2.4-5.4-5.5V18.7z"/>
	<path class="st0" d="M40.2,34.5l99.5,0.4c0,0,0,0,0,0c2.2,0,4.1-1.8,4.1-4.1c0-2.2-1.8-4.1-4-4.1l-99.5-0.4c-2.2,0-4.1,1.8-4.1,4
		C36.2,32.6,38,34.4,40.2,34.5z"/>
	<path class="st0" d="M40,53.7h46.8c0,0,0,0,0,0c2.3,0,4.1-1.8,4.1-4.1c0-2.2-1.8-4.1-4.1-4.1H40c-2.2,0-4.1,1.8-4.1,4.1
		C35.9,51.9,37.8,53.7,40,53.7z"/>
	<path class="st0" d="M388.1,168.8h21.7c1.7,0,3.1-1.4,3.1-3.1c0-1.7-1.4-3.1-3.1-3.1h-21.7c-1.7,0-3.1,1.4-3.1,3.1
		C385,167.4,386.4,168.8,388.1,168.8z"/>
	<path class="st0" d="M388.1,182h32c1.7,0,3.1-1.4,3.1-3.1v0c0-1.7-1.4-3.1-3.1-3.1h-32c-1.7,0-3.1,1.4-3.1,3.1v0
		C385,180.6,386.4,182,388.1,182z"/>
	<path class="st0" d="M388.1,196.1h13.3c1.7,0,3.1-1.4,3.1-3.1c0-1.7-1.4-3.1-3.1-3.1h-13.3c-1.7,0-3.1,1.4-3.1,3.1c0,0,0,0,0,0
		C385,194.7,386.4,196.1,388.1,196.1z"/>
	<path class="st0" d="M410.6,203.1h-22.4c-1.7,0-3.1,1.4-3.1,3.1c0,1.7,1.4,3.1,3.1,3.1h22.4c1.7,0,3.1-1.4,3.1-3.1
		C413.6,204.5,412.3,203.1,410.6,203.1z"/>
	<path class="st0" d="M407,217.2h-18.9c-1.7,0-3.1,1.4-3.1,3.1c0,1.7,1.4,3.1,3.1,3.1H407c1.7,0,3.1-1.4,3.1-3.1
		C410.1,218.6,408.7,217.2,407,217.2z"/>
	<path class="st0" d="M270.9,185.1h64.5c1.7,0,3.1-1.4,3.1-3.1c0-1.7-1.4-3.1-3.1-3.1h-64.5c-1.7,0-3.1,1.4-3.1,3.1
		C267.8,183.7,269.2,185.1,270.9,185.1z"/>
	<path class="st0" d="M270.9,198.3h90.6c1.7,0,3.1-1.4,3.1-3.1c0-1.7-1.4-3.1-3.1-3.1h-90.6c-1.7,0-3.1,1.4-3.1,3.1
		C267.8,196.9,269.2,198.3,270.9,198.3z"/>
	<path class="st0" d="M270.9,212.4h43.2c1.7,0,3.1-1.4,3.1-3.1c0-1.7-1.4-3.1-3.1-3.1h-43.2c-1.7,0-3.1,1.4-3.1,3.1
		C267.8,211,269.2,212.4,270.9,212.4z"/>
	<path class="st0" d="M270.9,225.6h66.3c1.7,0,3.1-1.4,3.1-3.1c0-1.7-1.4-3.1-3.1-3.1h-66.3c-1.7,0-3.1,1.4-3.1,3.1
		C267.8,224.2,269.2,225.6,270.9,225.6z"/>
	<path class="st0" d="M270.9,239.7h57.2c1.7,0,3.1-1.4,3.1-3.1c0-1.7-1.4-3.1-3.1-3.1h-57.2c-1.7,0-3.1,1.4-3.1,3.1
		C267.8,238.3,269.2,239.7,270.9,239.7z"/>
</g>
<g id="freepik--Shadow--inject-67">
	<ellipse class="st1" cx="224" cy="374.2" rx="193.9" ry="11.3"/>
</g>
<g id="freepik--Charts--inject-67">
	<path class="st2" d="M324.4,305.8H201.1c-16.5,0.1-30-13.2-30.1-29.7c0-0.7,0-1.3,0.1-2l10.5-201.2c0.9-17.4,15.9-31.7,33.3-31.7
		h123.2c16.5-0.1,30,13.2,30.1,29.7c0,0.7,0,1.4-0.1,2.1l-10.5,201.2C356.8,291.5,341.8,305.8,324.4,305.8z"/>
	<rect x="243.9" y="29.6" class="st3" width="7.7" height="1"/>
	<rect x="210.7" y="29.6" class="st3" width="26.7" height="1"/>
	
		<rect x="164.9" y="101.5" transform="matrix(5.285881e-02 -0.9986 0.9986 5.285881e-02 57.8557 265.0378)" class="st3" width="7.6" height="1"/>
	<path class="st4" d="M317.3,298.7H194c-16.5,0.1-30-13.2-30.1-29.7c0-0.7,0-1.3,0.1-2l10.6-201.2c0.9-17.4,15.9-31.7,33.4-31.7
		h123.2c16.5-0.1,30,13.2,30.1,29.7c0,0.7,0,1.4-0.1,2.1L350.7,267C349.7,284.4,334.7,298.7,317.3,298.7z"/>
	<g>
		<defs>
			<path id="SVGID_1_" d="M317.3,298.7H194c-16.5,0.1-30-13.2-30.1-29.7c0-0.7,0-1.3,0.1-2l10.6-201.2c0.9-17.4,15.9-31.7,33.4-31.7
				h123.2c16.5-0.1,30,13.2,30.1,29.7c0,0.7,0,1.4-0.1,2.1L350.7,267C349.7,284.4,334.7,298.7,317.3,298.7z"/>
		</defs>
		<clipPath id="SVGID_00000142859966335220016840000000672217761645502863_">
			<use xlink:href="#SVGID_1_"  style="overflow:visible;"/>
		</clipPath>
		<g style="clip-path:url(#SVGID_00000142859966335220016840000000672217761645502863_);">
			<path class="st3" d="M217.1,270.2c-29.3,0-56.3-11.4-75.9-32.1s-29.7-48.4-28.2-77.7c1.1-19.5,7.1-38.4,17.6-54.9
				c10.2-16.2,24.2-29.6,40.7-39.3c0.1,0,0.1,0,0.2,0c0.1,0,0.1,0.1,0.2,0.1l10.1,19.2c0.4-0.2,0.7-0.4,1.1-0.6l0.4-0.2
				c0.1,0,0.1,0,0.2,0c0.1,0,0.1,0.1,0.1,0.1l2.8,5.2c0.1,0.1,0,0.3-0.1,0.3c-25.7,14.4-42.6,41.1-44.1,69.9
				c-1.1,21.6,6.2,41.9,20.7,57.1c14.5,15.3,34.7,23.8,55.8,23.6c0.1,0,0.1,0,0.2,0.1c0,0,0.1,0.1,0.1,0.2l-1.5,28.6
				C217.3,270.2,217.2,270.2,217.1,270.2z M171.3,66.8c-33.6,19.7-55.8,55.5-57.8,93.6c-1.5,29.2,8.4,56.7,28,77.4
				s46.2,31.9,75.3,32l1.5-28.1c-21.1,0.1-41.3-8.5-55.9-23.8c-14.6-15.4-22-35.8-20.8-57.5c1.5-28.9,18.4-55.8,44.1-70.2l-2.5-4.8
				l-0.2,0.1c-0.4,0.2-0.9,0.5-1.3,0.7c-0.1,0-0.1,0-0.2,0c-0.1,0-0.1-0.1-0.1-0.1L171.3,66.8z"/>
			<path class="st3" d="M224.2,280.7c-0.1,0-0.1,0-0.2-0.1c0-0.1-0.1-0.1-0.1-0.2l1.6-30.6c0-0.1,0.1-0.2,0.2-0.2
				c47.7,0,88.4-38.8,90.9-86.4c0-0.1,0.1-0.2,0.2-0.2h7.3c0.1,0,0.2,0.1,0.2,0.2c0,0,0,0,0,0c0.1,2.5,0,5-0.1,7.4h22.5
				c0.1,0,0.1,0,0.2,0.1c0,0.1,0.1,0.1,0.1,0.2c-3.5,28.8-17,55.4-38.1,75.4C286,268.1,255.1,280.7,224.2,280.7z M226.1,250.1
				l-1.6,30.1c30.7-0.1,61.4-12.6,84.3-34.3c20.9-19.8,34.3-46.2,37.9-74.8h-22.5c-0.1,0-0.1,0-0.2-0.1c-0.1,0-0.1-0.1-0.1-0.2
				c0.1-2.5,0.2-5,0.1-7.4h-6.8C314.6,211.1,273.8,249.9,226.1,250.1z"/>
			<path class="st3" d="M324.3,163.4c-0.1,0-0.2-0.1-0.2-0.2c-1.3-50.5-42-90.1-92.8-90.1c-16.7,0-33.2,4.2-47.9,12.2
				c-0.1,0.1-0.3,0-0.3-0.1c0,0,0,0,0,0c-0.1-0.1,0-0.3,0.1-0.3c14.8-8,31.3-12.2,48.1-12.2c50.7-0.6,92.4,39.9,93.3,90.6
				C324.5,163.3,324.4,163.4,324.3,163.4C324.3,163.4,324.3,163.4,324.3,163.4L324.3,163.4z"/>
			<path class="st3" d="M358.8,171.1h-11.9c-0.1,0-0.2-0.1-0.2-0.2s0.1-0.2,0.2-0.2h11.6c1.2-22.9-3.7-45.6-14.3-65.9
				c-15.5-29.5-41.9-51-74.4-60.6c-34.6-10.3-71.4-6-103.7,12l5.4,10.3c0.1,0.1,0,0.3-0.1,0.3c-0.1,0.1-0.3,0-0.3-0.1c0,0,0,0,0,0
				L165.6,56c-0.1-0.1,0-0.3,0.1-0.3c0,0,0,0,0,0c16.1-9.1,33.9-14.8,52.3-16.8c17.5-1.9,35.1-0.4,52,4.6
				c32.6,9.7,59.2,31.3,74.7,60.9c10.6,20.5,15.6,43.4,14.3,66.4C359,171,358.9,171.1,358.8,171.1z"/>
			<path class="st3" d="M181.6,86.2L181.6,86.2c-0.1,0-0.2-0.1-0.2-0.1l-10.2-19.5c-0.1-0.1,0-0.3,0.1-0.3c0.1-0.1,0.3,0,0.3,0.1
				l10.1,19.2c0.4-0.2,0.7-0.4,1.1-0.6l0.4-0.2c0.1-0.1,0.3,0,0.3,0.1c0,0,0,0,0,0c0.1,0.1,0,0.3-0.1,0.3c0,0,0,0,0,0l-0.4,0.2
				c-0.4,0.2-0.9,0.5-1.3,0.7C181.7,86.2,181.6,86.2,181.6,86.2z"/>
			<g class="st6">
				<path class="st7" d="M217.1,270.2c-29.3,0-56.3-11.4-75.9-32.1s-29.7-48.4-28.2-77.7c1.1-19.5,7.1-38.4,17.6-54.9
					c10.2-16.2,24.2-29.6,40.7-39.3c0.1,0,0.1,0,0.2,0c0.1,0,0.1,0.1,0.2,0.1l10.1,19.2c0.4-0.2,0.7-0.4,1.1-0.6l0.4-0.2
					c0.1,0,0.1,0,0.2,0c0.1,0,0.1,0.1,0.1,0.1l2.8,5.2c0.1,0.1,0,0.3-0.1,0.3c-25.7,14.4-42.6,41.1-44.1,69.9
					c-1.1,21.6,6.2,41.9,20.7,57.1c14.5,15.3,34.7,23.8,55.8,23.6c0.1,0,0.1,0,0.2,0.1c0,0,0.1,0.1,0.1,0.2l-1.5,28.6
					C217.3,270.2,217.2,270.2,217.1,270.2z M171.3,66.8c-33.6,19.7-55.8,55.5-57.8,93.6c-1.5,29.2,8.4,56.7,28,77.4
					s46.2,31.9,75.3,32l1.5-28.1c-21.1,0.1-41.3-8.5-55.9-23.8c-14.6-15.4-22-35.8-20.8-57.5c1.5-28.9,18.4-55.8,44.1-70.2l-2.5-4.8
					l-0.2,0.1c-0.4,0.2-0.9,0.5-1.3,0.7c-0.1,0-0.1,0-0.2,0c-0.1,0-0.1-0.1-0.1-0.1L171.3,66.8z"/>
				<path class="st7" d="M224.2,280.7c-0.1,0-0.1,0-0.2-0.1c0-0.1-0.1-0.1-0.1-0.2l1.6-30.6c0-0.1,0.1-0.2,0.2-0.2
					c47.7,0,88.4-38.8,90.9-86.4c0-0.1,0.1-0.2,0.2-0.2h7.3c0.1,0,0.2,0.1,0.2,0.2c0,0,0,0,0,0c0.1,2.5,0,5-0.1,7.4h22.5
					c0.1,0,0.1,0,0.2,0.1c0,0.1,0.1,0.1,0.1,0.2c-3.5,28.8-17,55.4-38.1,75.4C286,268.1,255.1,280.7,224.2,280.7z M226.1,250.1
					l-1.6,30.1c30.7-0.1,61.4-12.6,84.3-34.3c20.9-19.8,34.3-46.2,37.9-74.8h-22.5c-0.1,0-0.1,0-0.2-0.1c-0.1,0-0.1-0.1-0.1-0.2
					c0.1-2.5,0.2-5,0.1-7.4h-6.8C314.6,211.1,273.8,249.9,226.1,250.1z"/>
				<path class="st7" d="M324.3,163.4c-0.1,0-0.2-0.1-0.2-0.2c-1.3-50.5-42-90.1-92.8-90.1c-16.7,0-33.2,4.2-47.9,12.2
					c-0.1,0.1-0.3,0-0.3-0.1c0,0,0,0,0,0c-0.1-0.1,0-0.3,0.1-0.3c14.8-8,31.3-12.2,48.1-12.2c50.7-0.6,92.4,39.9,93.3,90.6
					C324.5,163.3,324.4,163.4,324.3,163.4C324.3,163.4,324.3,163.4,324.3,163.4L324.3,163.4z"/>
				<path class="st7" d="M358.8,171.1h-11.9c-0.1,0-0.2-0.1-0.2-0.2s0.1-0.2,0.2-0.2h11.6c1.2-22.9-3.7-45.6-14.3-65.9
					c-15.5-29.5-41.9-51-74.4-60.6c-34.6-10.3-71.4-6-103.7,12l5.4,10.3c0.1,0.1,0,0.3-0.1,0.3c-0.1,0.1-0.3,0-0.3-0.1c0,0,0,0,0,0
					L165.6,56c-0.1-0.1,0-0.3,0.1-0.3c0,0,0,0,0,0c16.1-9.1,33.9-14.8,52.3-16.8c17.5-1.9,35.1-0.4,52,4.6
					c32.6,9.7,59.2,31.3,74.7,60.9c10.6,20.5,15.6,43.4,14.3,66.4C359,171,358.9,171.1,358.8,171.1z"/>
				<path class="st7" d="M181.6,86.2L181.6,86.2c-0.1,0-0.2-0.1-0.2-0.1l-10.2-19.5c-0.1-0.1,0-0.3,0.1-0.3c0.1-0.1,0.3,0,0.3,0.1
					l10.1,19.2c0.4-0.2,0.7-0.4,1.1-0.6l0.4-0.2c0.1-0.1,0.3,0,0.3,0.1c0,0,0,0,0,0c0.1,0.1,0,0.3-0.1,0.3c0,0,0,0,0,0l-0.4,0.2
					c-0.4,0.2-0.9,0.5-1.3,0.7C181.7,86.2,181.6,86.2,181.6,86.2z"/>
			</g>
		</g>
	</g>
	<path class="st3" d="M224.8,228.7l-1,18.4c-38.9,0-68.8-31.5-66.7-70.4c1.4-26.1,16.7-48.8,38.4-61l8.4,15.9
		c-16.6,9.2-27.3,26.2-28.4,45.1C174,205.4,196.1,228.7,224.8,228.7z"/>
	<path class="st8" d="M224.8,228.7l-1,18.4c-38.9,0-68.8-31.5-66.7-70.4c1.4-26.1,16.7-48.8,38.4-61l8.4,15.9
		c-16.6,9.2-27.3,26.2-28.4,45.1C174,205.4,196.1,228.7,224.8,228.7z"/>
	<path class="st3" d="M307.7,178.4c-2.6,42-37.2,74.9-79.3,75.4l1-19.7c30.8,0,57-24.9,58.6-55.7H307.7z"/>
	<path class="st9" d="M307.7,178.4c-2.6,42-37.2,74.9-79.3,75.4l1-19.7c30.8,0,57-24.9,58.6-55.7H307.7z"/>
	<path class="st10" d="M314.9,183.4h-22.2c1.8-34.8-24.9-63-59.7-63c-11.2,0-22.2,2.9-32,8.4l-10.1-19.3
		c41.7-23.4,93.5-9.3,114.8,31.2C312.6,153.9,315.7,168.6,314.9,183.4z"/>
	<polygon class="st10" points="312.5,238.8 292,238.8 289.8,281 310.3,281 	"/>
	<polygon class="st3" points="341.7,224.9 321.2,224.9 318.3,281 338.8,281 	"/>
	<polygon class="st8" points="341.7,224.9 321.2,224.9 318.3,281 338.8,281 	"/>
	<polygon class="st3" points="369.5,238.8 349,238.8 346.8,281 367.3,281 	"/>
	<polygon class="st9" points="369.5,238.8 349,238.8 346.8,281 367.3,281 	"/>
	<polygon class="st11" points="367.1,284.6 289.6,284.6 289.7,283.6 367.1,283.6 	"/>
	<polygon class="st12" points="377.6,106.1 288.3,106.1 290.9,55.7 380.2,55.7 	"/>
	<path class="st3" d="M289.9,75.4l-1.6,30.8h89.3l2-38.2c-14.8,0-23.6,16.9-41.9,16.9S314.3,75.4,289.9,75.4z"/>
	<path class="st13" d="M289.9,75.4l-1.6,30.8h89.3l2-38.2c-14.8,0-23.6,16.9-41.9,16.9S314.3,75.4,289.9,75.4z"/>
	<path class="st3" d="M289.1,90.1c20.1,0,27.3-11,38.5-11s16.2,11.6,30.2,11.6c14.6,0,21-9.1,21-9.1l-1.3,24.6h-89.3L289.1,90.1z"/>
	<path class="st14" d="M289.1,90.1c20.1,0,27.3-11,38.5-11s16.2,11.6,30.2,11.6c14.6,0,21-9.1,21-9.1l-1.3,24.6h-89.3L289.1,90.1z"
		/>
</g>
<g id="freepik--Character--inject-67">
	<path class="st15" d="M112.5,128.8c-1.3,1.8-2.8,3.7-4.1,5.7s-2.7,3.9-3.9,5.9c-2.5,3.9-4.7,7.9-6.6,12.1l-0.3,0.8l-0.2,0.4l0,0
		c-0.1,0.2-0.1,0.3-0.1,0.5c0,0.8,0.1,1.6,0.3,2.4c0.5,2.1,1.3,4.2,2.2,6.1c2,4.3,4.2,8.5,6.6,12.6l-4.3,3.4
		c-3.7-3.6-6.9-7.7-9.7-12c-1.5-2.3-2.8-4.8-3.7-7.4c-0.6-1.6-0.9-3.2-1.1-4.9c-0.1-1.1,0-2.1,0.2-3.2c0.1-0.3,0.2-0.6,0.2-0.9
		l0.2-0.5l0.3-1c0.4-1.3,0.9-2.5,1.4-3.8s1-2.4,1.6-3.6c1.1-2.4,2.4-4.7,3.7-6.9s2.7-4.4,4.2-6.5c0.7-1.1,1.5-2.1,2.2-3.1
		c0.8-1,1.5-2,2.4-3.1L112.5,128.8z"/>
	<path class="st15" d="M104.7,173.7l5.4,0.9l-4.8,8.1c0,0-3.7-1.8-4.4-5.3L104.7,173.7z"/>
	<polygon class="st15" points="115.9,177.5 111.6,184 105.3,182.7 110.1,174.6 	"/>
	<path class="st11" d="M140.2,89.6c0,0.6,0.3,1.1,0.7,1.1s0.7-0.5,0.7-1.1s-0.3-1.1-0.7-1.1S140.2,89,140.2,89.6z"/>
	<path class="st16" d="M140.4,90.7c0.7,1.8,1.7,3.5,2.8,5.1c-0.8,0.6-1.9,0.8-2.8,0.5V90.7z"/>
	<path class="st11" d="M138.1,86.3c-0.1,0-0.2-0.1-0.3-0.1c-0.1-0.1-0.1-0.4,0.1-0.5c0,0,0,0,0,0c0.9-0.7,2.1-0.9,3.1-0.5
		c0.2,0.1,0.3,0.3,0.2,0.4c-0.1,0.2-0.2,0.3-0.4,0.2c0,0,0,0,0,0l0,0c-0.9-0.3-1.8-0.1-2.5,0.4C138.2,86.3,138.2,86.3,138.1,86.3z"
		/>
	<path class="st15" d="M121.1,96.4c1.1,5.4,2.1,15.2-1.6,18.8c0,0,1.5,5.4,11.5,5.4c11,0,5.2-5.4,5.2-5.4c-6-1.4-5.8-5.9-4.8-10.1
		L121.1,96.4z"/>
	<path class="st3" d="M118,117.1c-0.8-1.7-1.6-3.7,0.1-4.3c2-0.7,12.8-1.4,16.5-0.1c2,0.6,3.2,2.7,2.7,4.7c0,0,0,0,0,0L118,117.1z"
		/>
	<path class="st3" d="M94.8,368c-0.6,0-1.3-0.1-1.9-0.2c-0.1,0-0.1-0.1-0.1-0.1c0-0.1,0-0.1,0.1-0.2c0.1-0.1,2.1-1.4,3.2-1.2
		c0.2,0,0.4,0.2,0.5,0.4c0.2,0.2,0.2,0.6,0,0.8C96.1,367.9,95.5,368.1,94.8,368z M93.4,367.5c1.1,0.2,2.6,0.2,2.9-0.2
		c0,0,0.1-0.2,0-0.4c-0.1-0.1-0.2-0.2-0.3-0.2C95.1,366.7,94.2,367,93.4,367.5L93.4,367.5z"/>
	<path class="st3" d="M93,367.8C93,367.8,92.9,367.8,93,367.8c-0.1,0-0.2-0.1-0.2-0.2c0-0.1,0.2-2.2,1-2.9c0.2-0.2,0.5-0.2,0.7-0.2
		c0.3,0,0.5,0.2,0.6,0.5C95.3,365.8,93.8,367.4,93,367.8L93,367.8z M94.5,364.8c-0.1,0-0.3,0.1-0.4,0.1c-0.5,0.7-0.8,1.5-0.9,2.3
		c0.8-0.6,1.7-1.8,1.6-2.3C94.8,365,94.8,364.9,94.5,364.8L94.5,364.8z"/>
	<path class="st3" d="M138.9,368c-0.8,0-1.5-0.1-2.2-0.2c-0.1,0-0.1-0.1-0.1-0.1c0-0.1,0-0.1,0.1-0.2c0.1-0.1,2.7-1.5,3.9-1.2
		c0.2,0.1,0.4,0.2,0.6,0.4c0.2,0.2,0.2,0.5,0,0.8C140.8,367.9,139.9,368,138.9,368z M137.2,367.5c1.4,0.2,3.2,0.2,3.6-0.3
		c0-0.1,0.1-0.2,0-0.4c-0.1-0.1-0.2-0.2-0.3-0.2C139.6,366.4,138,367.2,137.2,367.5L137.2,367.5z"/>
	<path class="st3" d="M136.7,367.8c0,0-0.1,0-0.1,0c-0.1,0-0.1-0.1-0.1-0.2c0.1-1,0.5-2,1.1-2.8c0.3-0.2,0.6-0.4,1-0.3
		c0.5,0,0.6,0.3,0.6,0.5c0.1,0.8-1.6,2.4-2.5,2.8L136.7,367.8z M138.5,364.8c-0.2,0-0.4,0.1-0.6,0.2c-0.6,0.6-0.9,1.4-1,2.3
		c0.9-0.5,2.1-1.8,2-2.3C138.9,365,138.9,364.9,138.5,364.8L138.5,364.8z"/>
	<polygon class="st15" points="128.6,367.6 136,367.6 136.7,350.6 129.4,350.6 	"/>
	<polygon class="st15" points="84.5,367.6 91.9,367.6 95.6,350.6 88.2,350.6 	"/>
	<path class="st11" d="M92.4,366.8h-8.2c-0.3,0-0.6,0.2-0.6,0.5l-1.4,6.5c-0.1,0.6,0.3,1.2,0.8,1.3c0.1,0,0.2,0,0.2,0
		c2.9,0,4.3-0.2,7.9-0.2c2.2,0,6.8,0.2,9.9,0.2s3.5-3,2.2-3.3c-5.7-1.2-7.8-3-9.6-4.6C93.3,367,92.8,366.8,92.4,366.8z"/>
	<path class="st11" d="M135.9,366.8h-8c-0.3,0-0.6,0.2-0.6,0.5l-1.4,6.5c-0.1,0.6,0.2,1.1,0.8,1.3c0.1,0,0.2,0,0.2,0
		c2.9,0,7.1-0.2,10.7-0.2c4.2,0,7.9,0.2,12.9,0.2c3,0,3.9-3,2.6-3.3c-5.8-1.3-10.4-1.4-15.4-4.5C137.2,367,136.6,366.8,135.9,366.8z
		"/>
	<path class="st15" d="M145.6,119.4c4.3,2.1,8.8,4.3,13.2,6.3s8.9,4,13.3,5.7l1.6,0.6l0.4,0.1h0.1l0,0l0,0c0,0,0,0,0.1,0.1
		c0.6,0.1,1.2,0,1.8-0.2c2-0.7,3.9-1.6,5.7-2.7c4-2.5,7.9-5.3,11.6-8.3l4.1,3.7c-3.1,4.3-6.7,8.2-10.7,11.6
		c-2.2,1.9-4.7,3.5-7.3,4.7c-1.7,0.8-3.6,1.2-5.5,1.2c-0.6,0-1.2-0.1-1.8-0.2l-0.5-0.1l-0.3-0.1l-0.5-0.1l-1.9-0.5
		c-4.9-1.5-9.8-3.2-14.6-5.3c-4.7-2-9.3-4.1-13.9-6.6L145.6,119.4z"/>
	<path class="st11" d="M106.2,116.9c-6.9,1.6-14.8,20.4-14.8,20.4l13.8,9.5c3.4-4.9,6.5-10.1,9.1-15.5
		C118.5,122.6,113.3,115.3,106.2,116.9z"/>
	<path class="st3" d="M111.2,128.9l-6.5,17.4l0.6,0.4c0,0,2.8-4,5.9-9.3V128.9z"/>
	<path class="st17" d="M111.2,128.9l-6.5,17.4l0.6,0.4c0,0,2.8-4,5.9-9.3V128.9z"/>
	<path class="st11" d="M147.4,117.3c0,0,7.8,8.8,0.4,63.5h-39.3c-0.3-6,3.5-35.5-2.3-63.9c4.3-0.8,8.7-1.4,13.1-1.7
		c5.6-0.3,11.1-0.3,16.7,0C139.9,115.6,143.7,116.3,147.4,117.3z"/>
	<path class="st3" d="M150.8,134.1l-9.4-2c0.1,0.2,6,7.5,9.6,12.1C151.1,140.3,151,137,150.8,134.1z"/>
	<path class="st17" d="M150.8,134.1l-9.4-2c0.1,0.2,6,7.5,9.6,12.1C151.1,140.3,151,137,150.8,134.1z"/>
	<path class="st11" d="M135.1,127.1c2.2,6.7,24,14,24,14l6.5-15.4c-5.5-3.3-11.3-6.1-17.4-8.1C139.4,114.7,132.7,119.7,135.1,127.1z
		"/>
	<path class="st15" d="M192.8,122l2.1-7.4l8.6,3.9c0,0-1.9,5.8-7.1,7.2L192.8,122z"/>
	<polygon class="st15" points="200.1,108.3 205.9,114.1 203.5,118.4 194.9,114.5 	"/>
	<polygon class="st18" points="136.7,350.6 136.3,359.4 129,359.4 129.4,350.6 	"/>
	<polygon class="st18" points="88.2,350.6 95.6,350.6 93.7,359.4 86.3,359.4 	"/>
	<path class="st15" d="M120.4,88.3c0.4,7.3,0.3,11.6,4,15.3c5.5,5.6,14.5,2.3,16.2-5c1.6-6.5,0.6-17.3-6.6-20.2
		c-5.1-2.1-10.9,0.3-13,5.4C120.5,85.2,120.3,86.8,120.4,88.3z"/>
	<path class="st11" d="M134.6,83.5c5.5,1.6,10.1-6.2,9.2-0.7s5.1,4.9,5.1,4.9s-4.7-1.8,0.9-6.4c6.8-5.7-2.9-9.2-7.1-6.1
		c-5.7,4.2-6.8-3.2-14.2-5.2c-5-1.3-11.1,1.8-11.3,5.4c-0.1,4.4-3.9,0.9-4.2,7.4c-0.2,4.3,4.9,18.4,10.4,18.9
		C131.7,102.6,134.5,92.1,134.6,83.5z"/>
	<path class="st15" d="M130.2,90.5c0.4,1.8,1.4,3.4,2.8,4.5c1.9,1.5,3.3,0.2,3.3-2c-0.1-1.9-1.1-5.1-3.1-5.7S129.8,88.3,130.2,90.5z
		"/>
	<path class="st11" d="M118.8,79.6c-1.8-2.8-2.1-6.3-0.8-9.3C118,70.3,110.2,76.2,118.8,79.6z"/>
	<path class="st11" d="M112.6,78.9c1.6-0.7,3.4-0.5,4.8,0.5C117.4,79.4,115.1,74.9,112.6,78.9z"/>
	<path class="st3" d="M133.9,180.8c0,0-8.3,56.1-12.9,77.2c-5,23-23.9,99.8-23.9,99.8H83.6c0,0,12.5-74.9,15.4-97.8
		c3.1-24.8,9.6-79.3,9.6-79.3L133.9,180.8z"/>
	<path class="st3" d="M99.2,352.8c0.1,0-1.4,5.2-1.4,5.2H82.7l0.3-4.6L99.2,352.8z"/>
	<path class="st19" d="M99.2,352.8c0.1,0-1.4,5.2-1.4,5.2H82.7l0.3-4.6L99.2,352.8z"/>
	<path class="st3" d="M128.6,200.8c-9.6,1.9-8.6,37.8-7.5,56.3c2.8-13.1,6.8-38.2,9.6-56.1C130.1,200.7,129.4,200.6,128.6,200.8z"/>
	<path class="st19" d="M128.6,200.8c-9.6,1.9-8.6,37.8-7.5,56.3c2.8-13.1,6.8-38.2,9.6-56.1C130.1,200.7,129.4,200.6,128.6,200.8z"
		/>
	<path class="st3" d="M147.8,180.8c0,0,1,54.9,0.2,77.3c-0.8,23.3-9,99.6-9,99.6h-12.4c0,0-0.5-74.9-1-97.8
		c-0.6-25-3.6-79.1-3.6-79.1L147.8,180.8z"/>
	<path class="st3" d="M136.5,348.8L136.5,348.8c-0.1,0-0.1-0.1-0.1-0.1c2.2-21.1,7.4-72.2,8-90.5c0.7-18.8,0.1-60.7-0.1-73.1
		c0-0.1,0.1-0.1,0.1-0.1c0.1,0,0.1,0.1,0.1,0.1c0.2,12.4,0.8,54.3,0.1,73.1c-0.6,18.3-5.8,69.4-8,90.5
		C136.6,348.7,136.6,348.8,136.5,348.8C136.5,348.8,136.5,348.8,136.5,348.8z"/>
	<path class="st19" d="M136.5,348.8L136.5,348.8c-0.1,0-0.1-0.1-0.1-0.1c2.2-21.1,7.4-72.2,8-90.5c0.7-18.8,0.1-60.7-0.1-73.1
		c0-0.1,0.1-0.1,0.1-0.1c0.1,0,0.1,0.1,0.1,0.1c0.2,12.4,0.8,54.3,0.1,73.1c-0.6,18.3-5.8,69.4-8,90.5
		C136.6,348.7,136.6,348.8,136.5,348.8C136.5,348.8,136.5,348.8,136.5,348.8z"/>
	<path class="st3" d="M141.5,352.8c0.1,0-0.7,5.2-0.7,5.2h-15.1l-0.4-4.6L141.5,352.8z"/>
	<path class="st19" d="M141.5,352.8c0.1,0-0.7,5.2-0.7,5.2h-15.1l-0.4-4.6L141.5,352.8z"/>
</g>
</svg>
