<svg version="1.1" id="Layer_1" xmlns="http://www.w3.org/2000/svg" xmlns:xlink="http://www.w3.org/1999/xlink" x="0px" y="0px"
	 width="100%" viewBox="0 0 657 696" enable-background="new 0 0 657 696" xml:space="preserve">
<path fill="#FFFFFE" opacity="1.000000" stroke="none" 
	d="
M429.000000,697.000000 
	C286.000000,697.000000 143.500000,697.000000 1.000000,697.000000 
	C1.000000,465.000000 1.000000,233.000000 1.000000,1.000000 
	C220.000000,1.000000 439.000000,1.000000 658.000000,1.000000 
	C658.000000,233.000000 658.000000,465.000000 658.000000,697.000000 
	C581.833313,697.000000 505.666656,697.000000 429.000000,697.000000 
M456.998993,571.409241 
	C450.512238,534.989868 459.647858,503.129517 486.291412,477.336029 
	C513.032288,451.448273 545.416809,443.633667 581.931519,450.651184 
	C579.761230,448.275146 577.477417,446.192688 575.036255,444.314819 
	C554.280640,428.349335 530.199707,420.475647 504.844452,416.036346 
	C473.820312,410.604492 442.508850,410.487335 411.168427,412.036133 
	C408.928772,412.146851 406.464203,413.518524 404.623596,414.964874 
	C390.956207,425.704620 376.694153,435.516052 360.816620,442.699310 
	C338.718750,452.696808 315.885742,457.254974 291.819061,450.839935 
	C269.376190,444.857758 251.354614,431.733398 235.257797,415.577118 
	C233.054565,413.365753 231.094498,411.855865 227.533493,412.291931 
	C202.912766,415.306946 178.211090,417.695679 153.630722,420.995544 
	C128.170654,424.413544 103.096313,429.714294 79.307617,439.891846 
	C51.415962,451.824799 30.622744,470.828949 19.547319,499.607758 
	C10.852294,522.201233 8.422523,545.810303 8.287687,569.740479 
	C8.069955,608.382690 14.008472,646.391113 20.397085,684.353638 
	C21.142445,688.782715 22.653414,690.187500 27.330566,690.184204 
	C226.975052,690.045166 426.619629,690.064636 626.264221,690.064697 
	C628.047119,690.064697 629.830017,690.064697 632.508911,690.064697 
	C633.133545,666.651672 633.742310,643.834290 634.351135,621.016968 
	C633.910461,620.846069 633.469788,620.675171 633.029175,620.504272 
	C604.126465,648.934387 569.945740,660.522156 530.636963,649.661072 
	C491.232819,638.773499 466.811859,612.134460 456.998993,571.409241 
M231.002319,354.514893 
	C232.560471,355.768127 234.089111,357.060242 235.681091,358.268951 
	C276.468994,389.237823 320.933044,397.835785 369.223236,378.928589 
	C401.735596,366.198853 426.083588,343.228088 444.052063,313.738861 
	C475.013123,262.926636 482.802582,207.961777 470.418884,150.197113 
	C460.521606,104.030670 438.641724,64.492599 399.737640,36.552147 
	C355.426208,4.728226 307.843872,0.472511 258.819183,25.210196 
	C226.589722,41.473080 203.919724,67.657921 187.892258,99.537788 
	C166.012573,143.058182 159.776566,189.102280 167.817993,237.047714 
	C175.532928,283.046661 195.241669,322.727509 231.002319,354.514893 
M561.341248,543.880554 
	C574.912964,520.112854 592.257202,499.478455 613.450867,482.072906 
	C584.554443,456.005127 528.902283,451.219269 492.354706,489.557953 
	C456.749084,526.908447 460.663666,586.667114 500.919708,620.180908 
	C539.763672,652.519104 599.154297,644.936768 629.354492,603.734253 
	C659.045349,563.226685 646.275574,512.173706 621.395752,490.027466 
	C612.066895,501.973907 602.163208,513.436584 593.634216,525.844177 
	C578.047119,548.519409 567.425293,573.655212 559.787720,600.032654 
	C558.732239,603.678223 557.263977,605.273926 553.309570,605.004456 
	C548.168518,604.654053 542.969788,604.672058 537.825745,605.000244 
	C533.998291,605.244446 532.267822,604.043518 531.298828,600.188049 
	C527.811096,586.311646 523.911316,572.539246 520.220764,558.713257 
	C519.087219,554.466370 518.124756,550.173828 516.963135,545.406311 
	C524.764282,545.406311 531.670166,545.406311 538.710815,545.406311 
	C541.149292,554.388733 543.545349,563.214844 546.197083,572.982849 
	C551.484924,562.756226 556.208130,553.621521 561.341248,543.880554 
z"/>
<path fill="#F58221" opacity="1.000000" stroke="none" 
	d="
M457.070374,571.829224 
	C466.811859,612.134460 491.232819,638.773499 530.636963,649.661072 
	C569.945740,660.522156 604.126465,648.934387 633.029175,620.504272 
	C633.469788,620.675171 633.910461,620.846069 634.351135,621.016968 
	C633.742310,643.834290 633.133545,666.651672 632.508911,690.064697 
	C629.830017,690.064697 628.047119,690.064697 626.264221,690.064697 
	C426.619629,690.064636 226.975052,690.045166 27.330566,690.184204 
	C22.653414,690.187500 21.142445,688.782715 20.397085,684.353638 
	C14.008472,646.391113 8.069955,608.382690 8.287687,569.740479 
	C8.422523,545.810303 10.852294,522.201233 19.547319,499.607758 
	C30.622744,470.828949 51.415962,451.824799 79.307617,439.891846 
	C103.096313,429.714294 128.170654,424.413544 153.630722,420.995544 
	C178.211090,417.695679 202.912766,415.306946 227.533493,412.291931 
	C231.094498,411.855865 233.054565,413.365753 235.257797,415.577118 
	C251.354614,431.733398 269.376190,444.857758 291.819061,450.839935 
	C315.885742,457.254974 338.718750,452.696808 360.816620,442.699310 
	C376.694153,435.516052 390.956207,425.704620 404.623596,414.964874 
	C406.464203,413.518524 408.928772,412.146851 411.168427,412.036133 
	C442.508850,410.487335 473.820312,410.604492 504.844452,416.036346 
	C530.199707,420.475647 554.280640,428.349335 575.036255,444.314819 
	C577.477417,446.192688 579.761230,448.275146 581.931519,450.651184 
	C545.416809,443.633667 513.032288,451.448273 486.291412,477.336029 
	C459.647858,503.129517 450.512238,534.989868 457.070374,571.829224 
z"/>
<path fill="#F58221" opacity="1.000000" stroke="none" 
	d="
M230.732803,354.282471 
	C195.241669,322.727509 175.532928,283.046661 167.817993,237.047714 
	C159.776566,189.102280 166.012573,143.058182 187.892258,99.537788 
	C203.919724,67.657921 226.589722,41.473080 258.819183,25.210196 
	C307.843872,0.472511 355.426208,4.728226 399.737640,36.552147 
	C438.641724,64.492599 460.521606,104.030670 470.418884,150.197113 
	C482.802582,207.961777 475.013123,262.926636 444.052063,313.738861 
	C426.083588,343.228088 401.735596,366.198853 369.223236,378.928589 
	C320.933044,397.835785 276.468994,389.237823 235.681091,358.268951 
	C234.089111,357.060242 232.560471,355.768127 230.732803,354.282471 
M305.177795,328.365356 
	C322.263336,334.200165 339.243988,335.255188 355.312073,325.609344 
	C378.173767,311.885254 392.814331,291.593933 400.792511,266.351471 
	C401.659851,263.607300 401.834625,260.644257 402.360382,257.611145 
	C348.425781,257.611145 295.286987,257.611145 241.531906,257.611145 
	C250.199875,274.202759 259.118805,289.776764 271.046143,303.383240 
	C280.363312,314.012115 290.919037,323.089142 305.177795,328.365356 
z"/>
<path fill="#F58322" opacity="1.000000" stroke="none" 
	d="
M561.136292,544.183716 
	C556.208130,553.621521 551.484924,562.756226 546.197083,572.982849 
	C543.545349,563.214844 541.149292,554.388733 538.710815,545.406311 
	C531.670166,545.406311 524.764282,545.406311 516.963135,545.406311 
	C518.124756,550.173828 519.087219,554.466370 520.220764,558.713257 
	C523.911316,572.539246 527.811096,586.311646 531.298828,600.188049 
	C532.267822,604.043518 533.998291,605.244446 537.825745,605.000244 
	C542.969788,604.672058 548.168518,604.654053 553.309570,605.004456 
	C557.263977,605.273926 558.732239,603.678223 559.787720,600.032654 
	C567.425293,573.655212 578.047119,548.519409 593.634216,525.844177 
	C602.163208,513.436584 612.066895,501.973907 621.395752,490.027466 
	C646.275574,512.173706 659.045349,563.226685 629.354492,603.734253 
	C599.154297,644.936768 539.763672,652.519104 500.919708,620.180908 
	C460.663666,586.667114 456.749084,526.908447 492.354706,489.557953 
	C528.902283,451.219269 584.554443,456.005127 613.450867,482.072906 
	C592.257202,499.478455 574.912964,520.112854 561.136292,544.183716 
z"/>
<path fill="#FFFEFD" opacity="1.000000" stroke="none" 
	d="
M304.813049,328.222992 
	C290.919037,323.089142 280.363312,314.012115 271.046143,303.383240 
	C259.118805,289.776764 250.199875,274.202759 241.531906,257.611145 
	C295.286987,257.611145 348.425781,257.611145 402.360382,257.611145 
	C401.834625,260.644257 401.659851,263.607300 400.792511,266.351471 
	C392.814331,291.593933 378.173767,311.885254 355.312073,325.609344 
	C339.243988,335.255188 322.263336,334.200165 304.813049,328.222992 
z"/>
</svg>