<svg xmlns="http://www.w3.org/2000/svg" width="44" height="44" fill="none" viewBox="0 0 44 44">
  <path stroke="#FF9300" stroke-linecap="round" stroke-linejoin="round" stroke-width="2.75" d="M23.64 16.5h-3.28a2.026 2.026 0 0 0-2.026 2.026v17.948c0 1.119.907 2.026 2.026 2.026h3.281a2.026 2.026 0 0 0 2.026-2.026V18.526A2.026 2.026 0 0 0 23.64 16.5Zm12.834-11h-3.281a2.026 2.026 0 0 0-2.026 2.026v28.948c0 1.119.907 2.026 2.026 2.026h3.282a2.026 2.026 0 0 0 2.025-2.026V7.526A2.026 2.026 0 0 0 36.474 5.5Zm-27.307 33a3.667 3.667 0 1 0 0-7.333 3.667 3.667 0 0 0 0 7.333Z"/>
</svg>
